<?xml version="1.0" encoding="utf-8"?>
<svg xmlns="http://www.w3.org/2000/svg" viewBox="0 0 800 800" width="800px" height="800px">
	<g id="svgGroup" stroke-linecap="round" fill-rule="nonzero" font-size="9pt" stroke="#b75d69" stroke-width="1.5mm"
		fill="#b75d69" style="stroke:#b75d69;stroke-width:1.5mm;fill:#b75d69"
		transform="matrix(0.905928, 0, 0, 0.905928, 100.000001, 600.000009)">
		<path
			d="M 14.25 111 L 0 111 L 0 6.3 A 168.426 168.426 0 0 1 6.469 5.644 A 221.334 221.334 0 0 1 13.575 5.175 Q 21 4.8 28.95 4.8 A 68.937 68.937 0 0 1 38.909 5.481 Q 44.228 6.258 48.707 7.923 A 39.016 39.016 0 0 1 51.15 8.925 A 36.91 36.91 0 0 1 58.772 13.468 A 29.06 29.06 0 0 1 65.1 20.25 A 28.72 28.72 0 0 1 69.869 35.274 A 35.095 35.095 0 0 1 69.9 36.75 A 37.887 37.887 0 0 1 68.838 45.933 A 28.902 28.902 0 0 1 64.35 55.8 A 33.468 33.468 0 0 1 53.023 65.744 A 42.098 42.098 0 0 1 48.9 67.725 A 52.162 52.162 0 0 1 36.766 71.06 A 70.791 70.791 0 0 1 25.95 71.85 A 156.035 156.035 0 0 1 19.147 71.708 A 124.393 124.393 0 0 1 14.25 71.4 L 14.25 111 Z M 14.25 17.4 L 14.25 59.25 A 71.953 71.953 0 0 0 16.198 59.464 Q 17.944 59.634 20.1 59.775 A 102.132 102.132 0 0 0 23.738 59.944 A 136.698 136.698 0 0 0 27.75 60 A 47.746 47.746 0 0 0 35.82 59.362 Q 40.139 58.62 43.595 57.016 A 22.831 22.831 0 0 0 48.45 54 A 19.345 19.345 0 0 0 55.733 39.837 A 25.98 25.98 0 0 0 55.8 37.95 A 21.678 21.678 0 0 0 54.659 30.76 A 18.203 18.203 0 0 0 48.75 22.5 Q 43.146 17.969 33.75 17.04 A 51.87 51.87 0 0 0 28.65 16.8 A 196.687 196.687 0 0 0 23.763 16.859 A 164.905 164.905 0 0 0 21 16.95 A 136.911 136.911 0 0 0 16.676 17.196 A 112.559 112.559 0 0 0 14.25 17.4 Z"
			id="0" />
		<path
			d="M 146.55 77.55 L 91.95 77.55 A 36.132 36.132 0 0 0 93.659 85.087 Q 95.663 90.806 99.6 94.65 Q 105.9 100.8 116.25 100.8 A 55.094 55.094 0 0 0 122.663 100.444 A 41.363 41.363 0 0 0 128.4 99.375 Q 133.8 97.95 138.75 95.7 L 141.9 107.25 A 61.155 61.155 0 0 1 135.398 109.689 A 77.795 77.795 0 0 1 129.75 111.225 A 58.371 58.371 0 0 1 122.112 112.454 A 78.038 78.038 0 0 1 114.6 112.8 A 42.477 42.477 0 0 1 102.981 111.292 A 31.662 31.662 0 0 1 87.975 102.075 A 35.282 35.282 0 0 1 80.167 87.765 Q 78.654 82.517 78.276 76.273 A 70.687 70.687 0 0 1 78.15 72 A 53.038 53.038 0 0 1 79.399 60.267 A 43.26 43.26 0 0 1 82.575 51.075 A 36.963 36.963 0 0 1 90.099 40.452 A 34.331 34.331 0 0 1 94.95 36.525 Q 102.9 31.2 113.4 31.2 A 42.83 42.83 0 0 1 121.605 31.944 Q 126.621 32.923 130.626 35.191 A 25.82 25.82 0 0 1 132.075 36.075 Q 139.5 40.95 143.25 49.2 A 42.278 42.278 0 0 1 146.889 63.996 A 50.152 50.152 0 0 1 147 67.35 A 112.805 112.805 0 0 1 146.564 77.395 A 103.961 103.961 0 0 1 146.55 77.55 Z M 91.8 66.6 L 134.55 66.6 A 36.533 36.533 0 0 0 133.944 59.722 Q 133.2 55.846 131.544 52.81 A 18.633 18.633 0 0 0 128.85 49.05 Q 123.15 42.9 113.1 42.9 A 20.37 20.37 0 0 0 105.432 44.302 A 18.786 18.786 0 0 0 98.7 48.975 Q 93 55.05 91.8 66.6 Z"
			id="1" />
		<path
			d="M 168.6 139.2 L 173.55 127.5 Q 177.15 130.35 181.95 132.225 A 25.357 25.357 0 0 0 186.731 133.539 Q 189.084 133.959 191.788 134.064 A 47.682 47.682 0 0 0 193.65 134.1 Q 204.3 134.1 210.375 128.475 A 17.028 17.028 0 0 0 214.735 121.735 Q 215.753 118.974 216.167 115.548 A 41.761 41.761 0 0 0 216.45 110.55 L 216.45 100.95 A 23.697 23.697 0 0 1 213.452 103.921 Q 211.838 105.273 209.818 106.568 A 47.11 47.11 0 0 1 207.825 107.775 A 23.86 23.86 0 0 1 200.053 110.527 A 32.385 32.385 0 0 1 194.4 111 Q 185.55 111 177.6 106.425 A 33.354 33.354 0 0 1 166.662 96.168 A 41.156 41.156 0 0 1 164.7 93 Q 159.75 84.15 159.75 71.7 A 48.091 48.091 0 0 1 161.126 59.988 A 40.023 40.023 0 0 1 164.625 50.85 A 38.559 38.559 0 0 1 173.72 39.416 A 36.672 36.672 0 0 1 177.75 36.45 Q 186 31.2 195.9 31.2 A 33.549 33.549 0 0 1 203.13 31.952 A 28.072 28.072 0 0 1 207.9 33.45 A 38.557 38.557 0 0 1 213.642 36.403 A 31.497 31.497 0 0 1 217.2 39 L 217.2 33 L 229.5 33 L 229.5 109.2 A 61.04 61.04 0 0 1 228.968 117.502 Q 228.366 121.885 227.08 125.54 A 30.247 30.247 0 0 1 225 130.2 Q 220.5 138.3 212.475 142.05 A 38.716 38.716 0 0 1 202.569 145.082 A 52.864 52.864 0 0 1 193.65 145.8 Q 186.75 145.8 180.225 144.15 A 40.847 40.847 0 0 1 172.275 141.274 A 35.277 35.277 0 0 1 168.6 139.2 Z M 216 90 L 216 49.2 Q 212.7 46.8 208.05 44.85 Q 203.4 42.9 197.25 42.9 Q 191.1 42.9 185.7 46.2 A 23.602 23.602 0 0 0 178.498 53.142 A 29.425 29.425 0 0 0 176.925 55.725 Q 173.748 61.585 173.562 69.905 A 46.72 46.72 0 0 0 173.55 70.95 A 36.481 36.481 0 0 0 174.267 78.354 A 27.467 27.467 0 0 0 176.925 85.8 A 27.863 27.863 0 0 0 181.292 91.912 A 23.703 23.703 0 0 0 185.7 95.55 Q 191.1 99 197.4 99 A 22.914 22.914 0 0 0 204.267 97.997 A 20.409 20.409 0 0 0 208.2 96.3 A 31.282 31.282 0 0 0 212.671 93.276 A 24.464 24.464 0 0 0 216 90 Z"
			id="2" />
		<path
			d="M 306.15 39.3 L 306.15 33 L 318.45 33 L 318.45 92.1 A 18.225 18.225 0 0 0 318.602 94.554 Q 318.987 97.376 320.344 98.806 A 4.448 4.448 0 0 0 321.225 99.525 Q 324 101.25 327.3 101.25 L 324.45 111.75 Q 310.405 111.75 307.205 100.62 A 20.385 20.385 0 0 1 307.05 100.05 A 31.961 31.961 0 0 1 302.386 105.189 A 42.747 42.747 0 0 1 297.675 108.825 A 22.392 22.392 0 0 1 290.245 111.98 Q 286.755 112.8 282.6 112.8 Q 272.85 112.8 264.9 107.85 A 34.42 34.42 0 0 1 253.78 96.56 A 41.884 41.884 0 0 1 252.225 93.825 Q 247.5 84.75 247.5 72.45 A 49.713 49.713 0 0 1 248.995 60.047 A 41.952 41.952 0 0 1 252.225 51.45 Q 256.95 42.15 265.275 36.675 A 33.446 33.446 0 0 1 282.067 31.265 A 41.082 41.082 0 0 1 284.4 31.2 A 33.876 33.876 0 0 1 291.59 31.936 A 28.055 28.055 0 0 1 296.625 33.525 A 39.003 39.003 0 0 1 303.055 36.966 A 33.154 33.154 0 0 1 306.15 39.3 Z M 304.95 91.05 L 304.95 49.2 Q 300.9 46.35 296.025 44.625 Q 291.15 42.9 285.75 42.9 A 23.887 23.887 0 0 0 278.293 44.031 A 21.035 21.035 0 0 0 273.075 46.575 A 24.451 24.451 0 0 0 265.546 54.711 A 29.944 29.944 0 0 0 264.45 56.775 A 30.995 30.995 0 0 0 261.82 65.29 A 41.517 41.517 0 0 0 261.3 72 Q 261.3 80.4 264.45 86.925 A 26.403 26.403 0 0 0 269.108 93.744 A 23.545 23.545 0 0 0 273.15 97.125 Q 278.7 100.8 285.6 100.8 Q 291.3 100.8 296.4 98.025 A 29.176 29.176 0 0 0 303.48 92.697 A 27.106 27.106 0 0 0 304.95 91.05 Z"
			id="3" />
	</g>
	<g id="svgGroup" stroke-linecap="round" fill-rule="nonzero" font-size="9pt" stroke="#eacdc2" stroke-width="1.5mm"
		fill="#eacdc2" style="stroke:#eacdc2;stroke-width:1.5mm;fill:#eacdc2"
		transform="matrix(0.905928, 0, 0, 0.905928, 100.000001, 600.000009)">
		<path
			d="M 359.4 144 L 345.9 144 L 345.9 52.95 A 16.522 16.522 0 0 0 345.71 50.346 Q 345.495 49.002 345.036 47.946 A 6.307 6.307 0 0 0 343.425 45.675 A 8.578 8.578 0 0 0 339.24 43.692 A 11.986 11.986 0 0 0 337.05 43.5 L 339.9 33 Q 353.7 33 357.15 43.95 A 17.136 17.136 0 0 1 358.336 42.393 Q 359.757 40.716 362.025 38.7 A 28.353 28.353 0 0 1 366.077 35.724 A 38.354 38.354 0 0 1 370.425 33.45 Q 375.45 31.2 381.9 31.2 Q 390.9 31.2 398.775 35.925 A 33.494 33.494 0 0 1 409.542 46.376 A 41.197 41.197 0 0 1 411.45 49.575 Q 416.039 58.108 416.241 70.137 A 66.412 66.412 0 0 1 416.25 71.25 A 54.855 54.855 0 0 1 415.195 82.246 A 42.158 42.158 0 0 1 411.45 93.075 A 41.77 41.77 0 0 1 405.549 101.823 A 34.544 34.544 0 0 1 398.925 107.625 Q 391.2 112.8 382.2 112.8 Q 375.3 112.8 369.3 110.025 Q 363.3 107.25 359.4 103.65 L 359.4 144 Z M 359.4 53.1 L 359.4 91.5 Q 363.3 95.55 368.4 98.175 Q 373.5 100.8 379.5 100.8 Q 389.541 100.8 395.875 93.024 A 26.07 26.07 0 0 0 396.075 92.775 A 28.188 28.188 0 0 0 401.315 81.817 Q 402.308 77.782 402.432 73.062 A 51.831 51.831 0 0 0 402.45 71.7 A 42.071 42.071 0 0 0 401.855 64.436 Q 401.064 59.929 399.225 56.25 Q 396 49.8 390.675 46.35 Q 385.35 42.9 378.9 42.9 A 22.112 22.112 0 0 0 370.46 44.494 A 21.081 21.081 0 0 0 367.275 46.125 Q 362.868 48.871 360.256 51.998 A 19.41 19.41 0 0 0 359.4 53.1 Z"
			id="4" />
		<path
			d="M 434.25 86.55 L 434.25 0 L 447.75 0 L 447.75 85.2 A 30.966 30.966 0 0 0 448.032 89.532 Q 448.335 91.674 448.965 93.409 A 11.96 11.96 0 0 0 451.125 97.2 A 11.045 11.045 0 0 0 458.001 100.913 A 16.086 16.086 0 0 0 460.5 101.1 Q 463.35 101.1 466.125 100.425 Q 468.9 99.75 470.85 98.85 L 474.15 109.8 A 27.226 27.226 0 0 1 471.746 110.725 Q 469.835 111.366 467.475 111.9 A 35.725 35.725 0 0 1 462.742 112.628 A 45.77 45.77 0 0 1 458.7 112.8 Q 451.8 112.8 446.25 110.175 A 19.024 19.024 0 0 1 438.263 103.027 A 23.784 23.784 0 0 1 437.475 101.7 Q 434.25 95.85 434.25 86.55 Z"
			id="5" />
		<path
			d="M 538.05 39.3 L 538.05 33 L 550.35 33 L 550.35 92.1 A 18.225 18.225 0 0 0 550.502 94.554 Q 550.887 97.376 552.244 98.806 A 4.448 4.448 0 0 0 553.125 99.525 Q 555.9 101.25 559.2 101.25 L 556.35 111.75 Q 542.305 111.75 539.105 100.62 A 20.385 20.385 0 0 1 538.95 100.05 A 31.961 31.961 0 0 1 534.286 105.189 A 42.747 42.747 0 0 1 529.575 108.825 A 22.392 22.392 0 0 1 522.145 111.98 Q 518.655 112.8 514.5 112.8 Q 504.75 112.8 496.8 107.85 A 34.42 34.42 0 0 1 485.68 96.56 A 41.884 41.884 0 0 1 484.125 93.825 Q 479.4 84.75 479.4 72.45 A 49.713 49.713 0 0 1 480.895 60.047 A 41.952 41.952 0 0 1 484.125 51.45 Q 488.85 42.15 497.175 36.675 A 33.446 33.446 0 0 1 513.967 31.265 A 41.082 41.082 0 0 1 516.3 31.2 A 33.876 33.876 0 0 1 523.49 31.936 A 28.055 28.055 0 0 1 528.525 33.525 A 39.003 39.003 0 0 1 534.955 36.966 A 33.154 33.154 0 0 1 538.05 39.3 Z M 536.85 91.05 L 536.85 49.2 Q 532.8 46.35 527.925 44.625 Q 523.05 42.9 517.65 42.9 A 23.887 23.887 0 0 0 510.193 44.031 A 21.035 21.035 0 0 0 504.975 46.575 A 24.451 24.451 0 0 0 497.446 54.711 A 29.944 29.944 0 0 0 496.35 56.775 A 30.995 30.995 0 0 0 493.72 65.29 A 41.517 41.517 0 0 0 493.2 72 Q 493.2 80.4 496.35 86.925 A 26.403 26.403 0 0 0 501.008 93.744 A 23.545 23.545 0 0 0 505.05 97.125 Q 510.6 100.8 517.5 100.8 Q 523.2 100.8 528.3 98.025 A 29.176 29.176 0 0 0 535.38 92.697 A 27.106 27.106 0 0 0 536.85 91.05 Z"
			id="6" />
		<path
			d="M 562.95 142.8 L 565.95 131.55 A 14.861 14.861 0 0 0 567.697 132.411 Q 568.931 132.928 570.45 133.35 A 20.27 20.27 0 0 0 573.868 133.976 A 26.037 26.037 0 0 0 576.45 134.1 Q 582.75 134.1 587.7 130.05 A 18.005 18.005 0 0 0 590.599 126.958 Q 593.222 123.492 595.711 117.713 A 87.87 87.87 0 0 0 597.15 114.15 L 600.6 105.15 L 593.4 105.15 L 562.95 36.6 L 574.95 31.2 L 604.05 96.15 L 626.7 31.8 L 639.15 36.6 L 610.5 114.9 Q 607.444 123.332 604.017 129.171 A 46.29 46.29 0 0 1 601.05 133.65 Q 595.95 140.4 589.8 143.1 A 32.177 32.177 0 0 1 579.816 145.631 A 39.058 39.058 0 0 1 576.15 145.8 Q 571.65 145.8 568.275 144.9 A 30.49 30.49 0 0 1 566.123 144.246 Q 565.117 143.896 564.285 143.51 A 12.921 12.921 0 0 1 562.95 142.8 Z"
			id="7" />
	</g>
	<g id="svgGroup" stroke-linecap="round" fill-rule="nonzero" font-size="9pt" stroke="#b75d69" stroke-width="1.5mm"
		fill="#b75d69" style="stroke:#b75d69;stroke-width:1.5mm;fill:#b75d69"
		transform="matrix(0.905928, 0, 0, 0.905928, 100.000001, 600.000009)">
		<path
			d="M 644.194 109.893 A 12.475 12.475 0 0 1 644.1 109.8 Q 641.1 106.8 641.1 102.75 A 12.937 12.937 0 0 1 641.449 99.66 A 8.891 8.891 0 0 1 643.8 95.4 A 8.969 8.969 0 0 1 648.371 92.977 A 13.22 13.22 0 0 1 651.15 92.7 Q 655.05 92.7 658.125 95.7 A 10.432 10.432 0 0 1 660.332 98.743 A 9.338 9.338 0 0 1 661.2 102.75 A 11.541 11.541 0 0 1 660.739 106.092 A 9.046 9.046 0 0 1 658.35 110.025 A 9.691 9.691 0 0 1 652.084 112.767 A 12.908 12.908 0 0 1 651.15 112.8 A 9.626 9.626 0 0 1 644.194 109.893 Z"
			id="8" />
	</g>
	<g transform="matrix(0.066333, 0, 0, -0.066333, 76.967187, 588.492685)" fill="#b75d69" stroke="none">
		<path
			d="M 2955.33 7613.74 C 2819.86 7580.16 2620.84 7501.82 2532.2 7445.85 C 2492.06 7421.87 2455.27 7401.09 2446.9 7401.09 C 2418.47 7401.09 2234.5 7226.81 2147.54 7114.89 C 2040.5 6980.58 1978.62 6863.86 1921.76 6700.77 C 1886.63 6596.85 1884.96 6572.86 1884.96 5888.54 L 1884.96 5181.83 L 1931.79 5138.66 C 1965.24 5105.08 1997.01 5092.29 2057.22 5087.5 C 2152.55 5079.5 2206.07 5105.08 2247.88 5175.44 C 2274.64 5223.4 2277.99 5284.16 2281.33 5894.93 C 2286.35 6510.51 2289.69 6566.47 2318.13 6625.63 C 2334.85 6660.8 2361.61 6715.16 2376.66 6745.54 C 2441.89 6881.45 2600.77 7041.34 2754.63 7124.48 C 2960.35 7236.4 3057.35 7257.19 3363.41 7257.19 L 3624.31 7257.19 L 3687.87 7306.75 C 3746.4 7351.52 3749.74 7361.11 3749.74 7444.26 C 3749.74 7525.8 3744.73 7538.59 3689.54 7586.56 L 3631 7640.92 L 3343.34 7639.32 C 3144.32 7637.72 3023.91 7629.73 2955.33 7613.74 Z"
			style="stroke-width: 0px;" />
		<path
			d="M 4167.86 7576.96 C 4110.99 7522.6 4100.97 7503.41 4100.97 7444.26 C 4100.97 7385.1 4110.99 7364.31 4159.5 7316.35 L 4219.71 7257.19 L 4800.05 7257.19 C 5132.86 7257.19 5427.21 7249.19 5489.1 7239.6 C 5549.31 7230.01 5636.27 7217.21 5681.43 7210.82 C 5728.26 7204.42 5781.78 7191.63 5801.85 7180.44 C 5821.92 7169.25 5853.7 7161.25 5873.76 7161.25 C 5893.83 7161.25 5930.62 7151.66 5954.04 7140.47 C 5979.13 7127.68 6025.95 7106.89 6057.74 7094.1 C 6398.91 6951.8 6587.9 6830.28 6812.01 6609.64 C 6932.43 6489.72 6969.22 6444.95 7067.9 6305.85 C 7246.85 6050.03 7338.83 5848.57 7427.45 5514.4 C 7487.67 5295.35 7491.01 4727.75 7437.49 4521.49 C 7385.64 4329.62 7358.91 4243.28 7335.49 4198.52 C 7322.11 4172.93 7312.07 4145.75 7312.07 4139.36 C 7312.07 4124.97 7210.05 3921.91 7173.26 3859.55 C 6942.46 3485.41 6614.66 3183.22 6228.33 2992.95 C 5984.14 2873.04 5857.04 2829.87 5597.81 2785.1 C 5408.82 2751.52 3082.44 2735.53 3062.37 2767.51 C 3035.61 2805.88 3043.97 3063.3 3072.4 3088.89 C 3094.14 3109.67 3263.07 3114.47 4296.63 3120.86 C 5462.34 3127.26 5500.81 3128.86 5622.89 3162.44 C 5795.16 3208.8 5840.32 3224.79 6024.28 3307.93 C 6126.3 3354.3 6144.7 3363.9 6316.96 3487.01 C 6510.97 3624.51 6661.49 3774.81 6795.28 3965.08 C 6950.82 4185.72 7009.36 4313.64 7081.28 4579.05 C 7129.78 4756.53 7133.12 5220.2 7087.96 5410.47 C 6984.28 5845.37 6715 6235.5 6327 6513.7 C 6166.44 6630.42 5937.32 6743.94 5773.41 6791.91 C 5445.62 6886.24 5539.27 6879.85 4325.07 6886.24 C 3206.19 6892.64 3119.23 6889.44 2972.06 6836.68 C 2891.78 6807.9 2764.67 6700.77 2726.2 6628.82 C 2642.58 6473.73 2645.92 6587.25 2645.92 4201.71 C 2645.92 2145.54 2647.6 1976.06 2674.35 1936.09 C 2722.86 1860.94 2764.67 1836.96 2856.66 1836.96 C 2930.25 1836.96 2946.97 1843.35 2995.47 1891.32 L 3048.99 1944.08 L 3052.34 2137.55 C 3054.01 2243.08 3062.37 2335.81 3069.06 2343.81 C 3087.45 2361.39 3809.96 2361.39 3828.35 2343.81 C 3853.44 2318.22 3843.4 1758.61 3813.3 1629.1 C 3751.42 1344.5 3544.04 1130.25 3249.69 1047.11 C 3087.45 1000.74 2930.25 1019.93 2729.55 1106.27 C 2642.58 1144.64 2431.85 1339.7 2388.37 1421.25 C 2289.69 1608.32 2296.38 1521.98 2291.37 2908.21 C 2286.35 4040.22 2283 4184.13 2259.59 4222.5 C 2214.44 4296.05 2154.22 4331.22 2073.95 4331.22 C 2012.07 4331.22 1992 4323.23 1941.82 4273.66 L 1884.96 4217.7 L 1889.97 2911.41 C 1896.67 1466.02 1891.65 1541.16 2008.72 1312.52 C 2105.73 1122.26 2109.07 1119.06 2251.23 983.144 C 2381.68 856.832 2518.82 765.696 2645.92 720.927 C 2978.74 601.01 3273.09 615.4 3590.86 767.295 C 3858.46 893.607 4049.12 1104.67 4172.88 1413.25 C 4218.03 1523.58 4234.76 1678.67 4234.76 1985.65 C 4234.76 2148.74 4241.45 2300.64 4251.48 2323.02 L 4266.53 2364.59 L 4831.83 2364.59 C 5263.32 2364.59 5438.92 2369.39 5572.72 2388.57 C 5766.73 2417.35 5918.92 2450.93 6004.22 2486.11 C 6034.32 2498.9 6071.11 2508.49 6084.49 2508.49 C 6099.55 2508.49 6131.32 2518.08 6154.73 2530.88 C 6179.82 2542.07 6275.15 2586.84 6367.14 2630.01 C 7223.44 3028.13 7808.78 3870.74 7879.02 4806.09 C 7895.74 5028.34 7875.67 5375.3 7837.21 5530.39 C 7746.89 5901.33 7638.19 6165.15 7480.97 6401.78 C 7189.98 6839.88 6808.66 7172.44 6350.41 7388.3 C 6119.62 7498.62 5920.59 7562.57 5714.88 7594.55 C 5669.73 7600.95 5586.1 7615.34 5530.91 7623.33 C 5474.05 7632.93 5174.67 7640.92 4833.5 7640.92 L 4234.76 7640.92 L 4167.86 7576.96 Z M 5530.91 6457.74 C 5751.68 6400.18 5892.16 6337.83 6081.15 6213.11 C 6353.76 6034.04 6581.21 5719.06 6678.21 5378.49 C 6709.99 5268.17 6709.99 4737.34 6678.21 4627.02 C 6561.14 4211.31 6216.62 3819.58 5815.23 3643.7 C 5770.07 3624.51 5711.54 3597.33 5686.45 3586.14 C 5663.03 3573.35 5629.59 3563.76 5611.19 3563.76 C 5594.46 3563.76 5550.98 3552.56 5514.19 3539.77 C 5459 3522.19 5300.11 3517.39 4649.53 3515.79 L 3850.1 3515.79 L 3850.1 4030.63 C 3850.1 4537.48 3850.1 4545.47 3813.3 4596.64 C 3791.55 4625.42 3746.4 4662.19 3711.28 4676.58 C 3656.09 4700.56 3639.36 4702.16 3585.85 4682.98 C 3453.72 4638.21 3458.74 4660.59 3448.71 4059.41 L 3440.34 3523.78 L 3258.04 3518.99 C 3122.57 3515.79 3070.73 3520.59 3060.69 3534.98 C 3042.3 3563.76 3043.97 6350.62 3062.37 6398.58 C 3100.83 6496.12 3025.58 6489.72 4273.23 6489.72 C 5348.62 6489.72 5420.53 6486.52 5530.91 6457.74 Z"
			style="stroke-width: 0px;" />
		<path
			d="M 4460.54 6062.82 C 4412.04 6050.03 4368.56 6010.05 4341.8 5947.7 C 4305 5864.56 4306.67 4102.58 4343.47 4014.64 C 4370.23 3950.69 4440.47 3899.52 4502.35 3899.52 C 4530.78 3899.52 4733.15 4008.25 4950.57 4142.55 C 4975.66 4158.54 5010.78 4177.73 5029.17 4185.72 C 5047.57 4193.72 5124.51 4236.89 5201.44 4281.66 C 5278.37 4328.02 5356.97 4371.19 5377.05 4380.79 C 5397.11 4388.78 5433.91 4407.97 5459 4423.96 C 5482.41 4438.35 5584.43 4497.51 5683.11 4555.07 C 5923.94 4694.17 5928.95 4695.77 5957.38 4710.16 C 5970.76 4716.55 6014.25 4742.14 6051.04 4766.12 C 6089.51 4790.1 6127.98 4810.89 6138.01 4810.89 C 6146.37 4810.89 6178.15 4836.47 6206.58 4866.85 C 6243.38 4908.42 6258.43 4940.4 6258.43 4980.37 C 6258.43 5074.7 6211.59 5125.87 6042.68 5223.4 C 5957.38 5274.57 5867.08 5327.33 5841.99 5341.72 C 5818.57 5357.71 5783.45 5376.9 5763.38 5384.89 C 5743.31 5392.88 5683.11 5428.06 5629.59 5461.64 C 5512.52 5533.59 5475.72 5554.37 5430.57 5578.35 C 5412.16 5587.95 5375.37 5608.73 5346.94 5626.32 C 5320.18 5643.91 5281.71 5664.69 5263.32 5674.29 C 5244.92 5683.88 5208.13 5704.67 5179.7 5722.25 C 5152.94 5739.84 5114.47 5760.63 5096.08 5770.22 C 5077.67 5779.81 5040.88 5800.6 5012.45 5818.19 C 4985.69 5835.77 4945.55 5856.56 4923.81 5866.15 C 4903.74 5874.15 4840.18 5910.92 4784.99 5946.1 C 4729.81 5981.27 4679.63 6010.05 4674.61 6010.05 C 4667.92 6010.05 4651.2 6019.65 4637.82 6032.44 C 4607.72 6058.02 4510.71 6075.61 4460.54 6062.82 Z M 4833.5 5477.63 C 4866.94 5456.84 4907.08 5434.45 4920.46 5429.66 C 4933.84 5423.26 4968.97 5404.08 4995.73 5386.49 C 5024.16 5368.9 5060.95 5348.11 5079.35 5338.52 C 5097.75 5328.93 5136.21 5308.14 5162.97 5290.56 C 5191.41 5272.97 5228.2 5252.18 5246.59 5242.59 C 5264.99 5232.99 5303.45 5212.21 5330.21 5194.62 C 5358.64 5177.03 5395.44 5156.25 5413.83 5146.65 C 5432.24 5137.06 5470.71 5116.28 5497.46 5098.69 C 5525.89 5081.1 5562.69 5060.31 5581.08 5052.32 C 5624.56 5034.73 5661.36 4991.56 5651.32 4975.57 C 5646.31 4967.58 5609.51 4945.19 5569.38 4926.01 C 5529.24 4905.22 5475.72 4874.84 5447.29 4858.85 C 5420.53 4841.27 5382.06 4820.48 5363.67 4810.89 C 5345.27 4801.3 5308.48 4780.51 5280.04 4762.92 C 5253.28 4745.33 5214.82 4724.55 5196.42 4716.55 C 5178.03 4708.56 5134.54 4682.98 5099.42 4660.59 C 5064.29 4638.21 5032.52 4619.02 5029.17 4619.02 C 5025.83 4619.02 4965.62 4585.45 4895.37 4545.47 C 4825.13 4505.5 4758.24 4476.72 4744.86 4481.52 C 4724.79 4487.91 4721.44 4569.46 4721.44 5002.76 C 4723.12 5570.36 4716.42 5546.38 4833.5 5477.63 Z"
			style="stroke-width: 0px;" />
	</g>
</svg>