<svg xmlns="http://www.w3.org/2000/svg" viewBox="0 0 400 400" width="800" height="800"><path d="M94.252 308.365H89.49v-34.998a56 56 0 0 1 2.162-.22 74 74 0 0 1 2.376-.156q2.482-.126 5.14-.126a23 23 0 0 1 3.328.228q1.778.26 3.275.816a13 13 0 0 1 .817.335 12.4 12.4 0 0 1 2.548 1.519 9.7 9.7 0 0 1 2.115 2.267 9.6 9.6 0 0 1 1.594 5.022 12 12 0 0 1 .01.493 12.7 12.7 0 0 1-.355 3.07 9.7 9.7 0 0 1-1.5 3.298 11.2 11.2 0 0 1-3.786 3.324 14 14 0 0 1-1.378.662 17.5 17.5 0 0 1-4.056 1.115 24 24 0 0 1-3.616.264 52 52 0 0 1-2.274-.047 42 42 0 0 1-1.637-.103zm0-31.288v13.99a24 24 0 0 0 .652.071q.583.057 1.304.104a34 34 0 0 0 1.216.056 46 46 0 0 0 1.341.02 16 16 0 0 0 2.698-.214q1.443-.248 2.599-.784a7.6 7.6 0 0 0 1.622-1.008 6.47 6.47 0 0 0 2.435-4.735 9 9 0 0 0 .022-.63 7.3 7.3 0 0 0-.381-2.404 6.1 6.1 0 0 0-1.975-2.76q-1.874-1.516-5.014-1.826a17 17 0 0 0-1.705-.08 66 66 0 0 0-1.634.02 55 55 0 0 0-.923.03 46 46 0 0 0-1.446.082 38 38 0 0 0-.81.068Zm44.224 20.107h-18.25a12 12 0 0 0 .57 2.519q.67 1.912 1.986 3.197 2.106 2.055 5.566 2.055a18 18 0 0 0 2.144-.119 14 14 0 0 0 1.917-.357q1.805-.476 3.46-1.228l1.053 3.86a20 20 0 0 1-2.174.816 26 26 0 0 1-1.887.513 19 19 0 0 1-2.554.411 26 26 0 0 1-2.51.116 14.2 14.2 0 0 1-3.885-.504 10.6 10.6 0 0 1-5.016-3.081 11.8 11.8 0 0 1-2.61-4.784q-.505-1.754-.632-3.841a24 24 0 0 1-.042-1.429 17.7 17.7 0 0 1 .418-3.922 14.5 14.5 0 0 1 1.061-3.072 12.4 12.4 0 0 1 2.515-3.551 11.5 11.5 0 0 1 1.622-1.313q2.657-1.78 6.167-1.78a14.4 14.4 0 0 1 2.743.249q1.677.327 3.015 1.085a9 9 0 0 1 .485.296q2.482 1.63 3.735 4.387a14.1 14.1 0 0 1 1.217 4.946 17 17 0 0 1 .037 1.121 38 38 0 0 1-.146 3.358zm-18.301-3.66h14.29a12 12 0 0 0-.203-2.3q-.248-1.295-.802-2.31a6.2 6.2 0 0 0-.9-1.257q-1.906-2.056-5.265-2.056a6.8 6.8 0 0 0-2.563.469 6.3 6.3 0 0 0-2.25 1.562q-1.906 2.03-2.307 5.891Zm25.672 24.267 1.655-3.91q1.203.952 2.807 1.579a8.5 8.5 0 0 0 1.599.44q.786.14 1.69.175a16 16 0 0 0 .622.012q3.56 0 5.591-1.88a5.7 5.7 0 0 0 1.457-2.254q.34-.923.48-2.068a14 14 0 0 0 .094-1.67v-3.21a8 8 0 0 1-1.002.994q-.54.452-1.215.884a16 16 0 0 1-.666.404 8 8 0 0 1-2.598.92 11 11 0 0 1-1.89.158q-2.958 0-5.616-1.53a11.15 11.15 0 0 1-3.656-3.428 14 14 0 0 1-.656-1.059q-1.654-2.958-1.654-7.12a16 16 0 0 1 .46-3.915 13.4 13.4 0 0 1 1.17-3.054 12.9 12.9 0 0 1 3.04-3.822 12 12 0 0 1 1.347-.992q2.757-1.755 6.067-1.755a11.2 11.2 0 0 1 2.416.252 9.4 9.4 0 0 1 1.595.5 13 13 0 0 1 1.92.987 10.5 10.5 0 0 1 1.188.869v-2.006h4.112v25.471a20 20 0 0 1-.178 2.775q-.201 1.466-.631 2.687a10 10 0 0 1-.695 1.558q-1.504 2.708-4.187 3.961a13 13 0 0 1-3.311 1.014 17.7 17.7 0 0 1-2.982.24q-2.306 0-4.487-.552a13.7 13.7 0 0 1-2.658-.961 12 12 0 0 1-1.228-.694Zm15.844-16.446v-13.638q-1.103-.802-2.657-1.454t-3.61-.652-3.861 1.103a7.9 7.9 0 0 0-2.407 2.32 10 10 0 0 0-.526.864q-1.062 1.959-1.124 4.74l-.004.35a12.2 12.2 0 0 0 .24 2.474 9.2 9.2 0 0 0 .888 2.49 9.3 9.3 0 0 0 1.46 2.042 8 8 0 0 0 1.473 1.217q1.805 1.153 3.91 1.153a7.7 7.7 0 0 0 2.296-.336 7 7 0 0 0 1.315-.567 10.5 10.5 0 0 0 1.495-1.01 8 8 0 0 0 1.112-1.096Zm30.135-16.947v-2.106h4.111v19.755a6 6 0 0 0 .051.82q.129.944.582 1.422a1.5 1.5 0 0 0 .295.24q.927.577 2.03.577l-.952 3.51q-4.695 0-5.765-3.72l-.051-.191a10.7 10.7 0 0 1-1.56 1.718 14 14 0 0 1-1.574 1.215 7.5 7.5 0 0 1-2.484 1.055q-1.166.274-2.555.274-3.26 0-5.917-1.655a11.5 11.5 0 0 1-3.717-3.774 14 14 0 0 1-.52-.914q-1.58-3.034-1.58-7.145a16.6 16.6 0 0 1 .5-4.146 14 14 0 0 1 1.08-2.874q1.58-3.109 4.362-4.939a11.2 11.2 0 0 1 5.614-1.808 14 14 0 0 1 .78-.022 11.4 11.4 0 0 1 2.403.246 9.4 9.4 0 0 1 1.683.531 13 13 0 0 1 2.15 1.15 11 11 0 0 1 1.034.78Zm-.401 17.298v-13.989q-1.354-.953-2.984-1.53t-3.434-.576a8 8 0 0 0-2.493.378 7 7 0 0 0-1.744.85 8.2 8.2 0 0 0-2.517 2.72 10 10 0 0 0-.366.69 10.4 10.4 0 0 0-.88 2.846 14 14 0 0 0-.173 2.243q0 2.808 1.053 4.99a8.8 8.8 0 0 0 1.557 2.279 8 8 0 0 0 1.35 1.13q1.856 1.228 4.163 1.228 1.905 0 3.61-.927a9.8 9.8 0 0 0 2.366-1.781 9 9 0 0 0 .492-.55Z" stroke-linecap="round" font-size="12" stroke="#b75d69" fill="#b75d69" style="stroke:#b75d69;stroke-width:1mm;fill:#b75d69"/><path d="M209.626 319.396h-4.513V288.96a5.5 5.5 0 0 0-.064-.87q-.071-.45-.225-.803a2.1 2.1 0 0 0-.538-.76 2.9 2.9 0 0 0-1.4-.662 4 4 0 0 0-.731-.064l.952-3.51q4.613 0 5.767 3.66a6 6 0 0 1 .396-.52q.475-.56 1.233-1.235a9.5 9.5 0 0 1 1.355-.995 13 13 0 0 1 1.453-.76q1.68-.752 3.836-.752 3.008 0 5.64 1.58a11.2 11.2 0 0 1 3.6 3.493 14 14 0 0 1 .637 1.07q1.534 2.852 1.602 6.873l.003.372a18.4 18.4 0 0 1-.353 3.675 14 14 0 0 1-1.252 3.62 14 14 0 0 1-1.972 2.924 11.5 11.5 0 0 1-2.214 1.94q-2.583 1.73-5.591 1.73-2.306 0-4.312-.928t-3.31-2.13zm0-30.385v12.836q1.303 1.354 3.008 2.231t3.71.877q3.357 0 5.474-2.599l.067-.083a9.4 9.4 0 0 0 1.752-3.663q.332-1.349.373-2.927a17 17 0 0 0 .006-.455 14 14 0 0 0-.199-2.428q-.264-1.507-.879-2.736-1.078-2.156-2.858-3.31t-3.936-1.153a7.4 7.4 0 0 0-2.821.533 7 7 0 0 0-1.065.545q-1.473.918-2.346 1.963a6 6 0 0 0-.286.369Zm25.02 11.181v-28.931h4.512v28.48a10 10 0 0 0 .095 1.448q.101.716.312 1.296a4 4 0 0 0 .722 1.267 3.7 3.7 0 0 0 2.298 1.241 5.4 5.4 0 0 0 .835.063q.953 0 1.88-.226t1.58-.526l1.103 3.66a9 9 0 0 1-.803.31q-.64.213-1.428.392a12 12 0 0 1-1.582.243 15 15 0 0 1-1.351.058q-2.307 0-4.162-.878a6.36 6.36 0 0 1-2.67-2.39 8 8 0 0 1-.263-.443q-1.078-1.955-1.078-5.064Zm34.697-15.794v-2.106h4.112v19.755a6 6 0 0 0 .05.82q.129.944.583 1.422a1.5 1.5 0 0 0 .294.24q.928.577 2.03.577l-.952 3.51q-4.695 0-5.764-3.72l-.052-.191a10.7 10.7 0 0 1-1.56 1.718 14 14 0 0 1-1.574 1.215 7.5 7.5 0 0 1-2.484 1.055q-1.166.274-2.555.274-3.26 0-5.917-1.655a11.5 11.5 0 0 1-3.717-3.774 14 14 0 0 1-.52-.914q-1.579-3.034-1.579-7.145a16.6 16.6 0 0 1 .5-4.146 14 14 0 0 1 1.08-2.874q1.579-3.109 4.362-4.939a11.2 11.2 0 0 1 5.613-1.808 14 14 0 0 1 .78-.022 11.4 11.4 0 0 1 2.403.246 9.4 9.4 0 0 1 1.683.531 13 13 0 0 1 2.15 1.15 11 11 0 0 1 1.034.78Zm-.401 17.298v-13.989q-1.354-.953-2.983-1.53t-3.435-.576a8 8 0 0 0-2.493.378 7 7 0 0 0-1.744.85 8.2 8.2 0 0 0-2.517 2.72 10 10 0 0 0-.366.69 10.4 10.4 0 0 0-.88 2.846 14 14 0 0 0-.173 2.243q0 2.808 1.053 4.99a8.8 8.8 0 0 0 1.557 2.279 8 8 0 0 0 1.351 1.13q1.855 1.228 4.162 1.228 1.905 0 3.61-.927a9.8 9.8 0 0 0 2.367-1.781 9 9 0 0 0 .49-.55Zm8.724 17.299 1.003-3.76a5 5 0 0 0 .584.287q.413.173.92.314a7 7 0 0 0 1.143.21 9 9 0 0 0 .863.04q2.106 0 3.76-1.353a6 6 0 0 0 .97-1.034q.876-1.158 1.708-3.09a29 29 0 0 0 .481-1.191l1.154-3.009h-2.407l-10.179-22.914 4.012-1.805 9.727 21.711 7.571-21.51 4.162 1.604-9.577 26.174q-1.022 2.818-2.167 4.77a15 15 0 0 1-.992 1.497q-1.705 2.257-3.76 3.159a10.8 10.8 0 0 1-3.338.846 13 13 0 0 1-1.225.057q-1.505 0-2.633-.301a10 10 0 0 1-.719-.219q-.336-.117-.614-.246a4 4 0 0 1-.447-.237Z" stroke-linecap="round" font-size="12" stroke="#eacdc2" fill="#eacdc2" style="stroke:#eacdc2;stroke-width:1mm;fill:#eacdc2"/><path d="m644.194 109.893-.094-.093q-3-3-3-7.05a13 13 0 0 1 .349-3.09 8.9 8.9 0 0 1 2.351-4.26 8.97 8.97 0 0 1 4.571-2.423 13.2 13.2 0 0 1 2.779-.277q3.9 0 6.975 3a10.4 10.4 0 0 1 2.207 3.043 9.3 9.3 0 0 1 .868 4.007 11.5 11.5 0 0 1-.461 3.342 9.05 9.05 0 0 1-2.389 3.933 9.7 9.7 0 0 1-6.266 2.742 13 13 0 0 1-.934.033 9.63 9.63 0 0 1-6.956-2.907Z" transform="translate(89.489 271.261)scale(.33427)" stroke-linecap="round" font-size="12" stroke="#b75d69" stroke-width="1.5mm" fill="#b75d69" style="stroke:#b75d69;stroke-width:1.5mm;fill:#b75d69"/><g fill="#b75d69"><path d="M2955.33 7613.74c-135.47-33.58-334.49-111.92-423.13-167.89-40.14-23.98-76.93-44.76-85.3-44.76-28.43 0-212.4-174.28-299.36-286.2-107.04-134.31-168.92-251.03-225.78-414.12-35.13-103.92-36.8-127.91-36.8-812.23v-706.71l46.83-43.17c33.45-33.58 65.22-46.37 125.43-51.16 95.33-8 148.85 17.58 190.66 87.94 26.76 47.96 30.11 108.72 33.45 719.49 5.02 615.58 8.36 671.54 36.8 730.7 16.72 35.17 43.48 89.53 58.53 119.91 65.23 135.91 224.11 295.8 377.97 378.94 205.72 111.92 302.72 132.71 608.78 132.71h260.9l63.56 49.56c58.53 44.77 61.87 54.36 61.87 137.51 0 81.54-5.01 94.33-60.2 142.3l-58.54 54.36-287.66-1.6c-199.02-1.6-319.43-9.59-388.01-25.58" style="stroke-width:0" transform="matrix(.02447 0 0 -.02447 80.99 267.015)"/><path d="M4167.86 7576.96c-56.87-54.36-66.89-73.55-66.89-132.7 0-59.16 10.02-79.95 58.53-127.91l60.21-59.16h580.34c332.81 0 627.16-8 689.05-17.59 60.21-9.59 147.17-22.39 192.33-28.78 46.83-6.4 100.35-19.19 120.42-30.38s51.85-19.19 71.91-19.19c20.07 0 56.86-9.59 80.28-20.78 25.09-12.79 71.91-33.58 103.7-46.37 341.17-142.3 530.16-263.82 754.27-484.46 120.42-119.92 157.21-164.69 255.89-303.79 178.95-255.82 270.93-457.28 359.55-791.45 60.22-219.05 63.56-786.65 10.04-992.91-51.85-191.87-78.58-278.21-102-322.97-13.38-25.59-23.42-52.77-23.42-59.16 0-14.39-102.02-217.45-138.81-279.81-230.8-374.14-558.6-676.33-944.93-866.6-244.19-119.91-371.29-163.08-630.52-207.85-188.99-33.58-2515.37-49.57-2535.44-17.59-26.76 38.37-18.4 295.79 10.03 321.38 21.74 20.78 190.67 25.58 1224.23 31.97 1165.71 6.4 1204.18 8 1326.26 41.58 172.27 46.36 217.43 62.35 401.39 145.49 102.02 46.37 120.42 55.97 292.68 179.08 194.01 137.5 344.53 287.8 478.32 478.07 155.54 220.64 214.08 348.56 286 613.97 48.5 177.48 51.84 641.15 6.68 831.42C6984.28 5845.37 6715 6235.5 6327 6513.7c-160.56 116.72-389.68 230.24-553.59 278.21-327.79 94.33-234.14 87.94-1448.34 94.33-1118.88 6.4-1205.84 3.2-1353.01-49.56-80.28-28.78-207.39-135.91-245.86-207.86-83.62-155.09-80.28-41.57-80.28-2427.11 0-2056.17 1.68-2225.65 28.43-2265.62 48.51-75.15 90.32-99.13 182.31-99.13 73.59 0 90.31 6.39 138.81 54.36l53.52 52.76 3.35 193.47c1.67 105.53 10.03 198.26 16.72 206.26 18.39 17.58 740.9 17.58 759.29 0 25.09-25.59 15.05-585.2-15.05-714.71-61.88-284.6-269.26-498.85-563.61-581.99-162.24-46.37-319.44-27.18-520.14 59.16-86.97 38.37-297.7 233.43-341.18 314.98-98.68 187.07-91.99 100.73-97 1486.96-5.02 1132.01-8.37 1275.92-31.78 1314.29-45.15 73.55-105.37 108.72-185.64 108.72-61.88 0-81.95-7.99-132.13-57.56l-56.86-55.96 5.01-1306.29c6.7-1445.39 1.68-1370.25 118.75-1598.89 97.01-190.26 100.35-193.46 242.51-329.376 130.45-126.312 267.59-217.448 394.69-262.217 332.82-119.917 627.17-105.527 944.94 46.368 267.6 126.312 458.26 337.375 582.02 645.955 45.15 110.33 61.88 265.42 61.88 572.4 0 163.09 6.69 314.99 16.72 337.37l15.05 41.57h565.3c431.49 0 607.09 4.8 740.89 23.98 194.01 28.78 346.2 62.36 431.5 97.54 30.1 12.79 66.89 22.38 80.27 22.38 15.06 0 46.83 9.59 70.24 22.39 25.09 11.19 120.42 55.96 212.41 99.13 856.3 398.12 1441.64 1240.73 1511.88 2176.08 16.72 222.25-3.35 569.21-41.81 724.3-90.32 370.94-199.02 634.76-356.24 871.39-290.99 438.1-672.31 770.66-1130.56 986.52-230.79 110.32-429.82 174.27-635.53 206.25-45.15 6.4-128.78 20.79-183.97 28.78-56.86 9.6-356.24 17.59-697.41 17.59h-598.74zm1363.05-1119.22c220.77-57.56 361.25-119.91 550.24-244.63 272.61-179.07 500.06-494.05 597.06-834.62 31.78-110.32 31.78-641.15 0-751.47-117.07-415.71-461.59-807.44-862.98-983.32-45.16-19.19-103.69-46.37-128.78-57.56-23.42-12.79-56.86-22.38-75.26-22.38-16.73 0-60.21-11.2-97-23.99-55.19-17.58-214.08-22.38-864.66-23.98H3850.1v514.84c0 506.85 0 514.84-36.8 566.01-21.75 28.78-66.9 65.55-102.02 79.94-55.19 23.98-71.92 25.58-125.43 6.4-132.13-44.77-127.11-22.39-137.14-623.57l-8.37-535.63-182.3-4.79c-135.47-3.2-187.31 1.6-197.35 15.99-18.39 28.78-16.72 2815.64 1.68 2863.6 38.46 97.54-36.79 91.14 1210.86 91.14 1075.39 0 1147.3-3.2 1257.68-31.98" style="stroke-width:0" transform="matrix(.02447 0 0 -.02447 80.99 267.015)"/><path d="M4460.54 6062.82c-48.5-12.79-91.98-52.77-118.74-115.12-36.8-83.14-35.13-1845.12 1.67-1933.06 26.76-63.95 97-115.12 158.88-115.12 28.43 0 230.8 108.73 448.22 243.03 25.09 15.99 60.21 35.18 78.6 43.17 18.4 8 95.34 51.17 172.27 95.94 76.93 46.36 155.53 89.53 175.61 99.13 20.06 7.99 56.86 27.18 81.95 43.17 23.41 14.39 125.43 73.55 224.11 131.11 240.83 139.1 245.84 140.7 274.27 155.09 13.38 6.39 56.87 31.98 93.66 55.96 38.47 23.98 76.94 44.77 86.97 44.77 8.36 0 40.14 25.58 68.57 55.96 36.8 41.57 51.85 73.55 51.85 113.52 0 94.33-46.84 145.5-215.75 243.03-85.3 51.17-175.6 103.93-200.69 118.32-23.42 15.99-58.54 35.18-78.61 43.17s-80.27 43.17-133.79 76.75c-117.07 71.95-153.87 92.73-199.02 116.71-18.41 9.6-55.2 30.38-83.63 47.97-26.76 17.59-65.23 38.37-83.62 47.97-18.4 9.59-55.19 30.38-83.62 47.96-26.76 17.59-65.23 38.38-83.62 47.97-18.41 9.59-55.2 30.38-83.63 47.97-26.76 17.58-66.9 38.37-88.64 47.96-20.07 8-83.63 44.77-138.82 79.95-55.18 35.17-105.36 63.95-110.38 63.95-6.69 0-23.41 9.6-36.79 22.39-30.1 25.58-127.11 43.17-177.28 30.38m372.96-585.19c33.44-20.79 73.58-43.18 86.96-47.97 13.38-6.4 48.51-25.58 75.27-43.17 28.43-17.59 65.22-38.38 83.62-47.97s56.86-30.38 83.62-47.96c28.44-17.59 65.23-38.38 83.62-47.97 18.4-9.6 56.86-30.38 83.62-47.97 28.43-17.59 65.23-38.37 83.62-47.97 18.41-9.59 56.88-30.37 83.63-47.96 28.43-17.59 65.23-38.38 83.62-46.37 43.48-17.59 80.28-60.76 70.24-76.75-5.01-7.99-41.81-30.38-81.94-49.56-40.14-20.79-93.66-51.17-122.09-67.16-26.76-17.58-65.23-38.37-83.62-47.96-18.4-9.59-55.19-30.38-83.63-47.97-26.76-17.59-65.22-38.37-83.62-46.37-18.39-7.99-61.88-33.57-97-55.96-35.13-22.38-66.9-41.57-70.25-41.57-3.34 0-63.55-33.57-133.8-73.55-70.24-39.97-137.13-68.75-150.51-63.95-20.07 6.39-23.42 87.94-23.42 521.24 1.68 567.6-5.02 543.62 112.06 474.87" style="stroke-width:0" transform="matrix(.02447 0 0 -.02447 80.99 267.015)"/></g></svg>