<svg xmlns="http://www.w3.org/2000/svg" width="680" height="160" viewBox="0 0 680 160">
	<path fill="#b75d69" stroke="#b75d69" stroke-linecap="round" stroke-width="1.5"
		d="M23.591 118.006H9.341v-104.7a168 168 0 0 1 6.469-.656 221 221 0 0 1 7.106-.469q7.425-.375 15.375-.375a69 69 0 0 1 9.959.681q5.319.777 9.798 2.442a39 39 0 0 1 2.443 1.002 37 37 0 0 1 7.622 4.543 29 29 0 0 1 6.328 6.782A28.7 28.7 0 0 1 79.21 42.28a35 35 0 0 1 .031 1.476 38 38 0 0 1-1.062 9.183 28.9 28.9 0 0 1-4.488 9.867 33.5 33.5 0 0 1-11.327 9.944 42 42 0 0 1-4.123 1.981 52.2 52.2 0 0 1-12.134 3.335 71 71 0 0 1-10.816.79 156 156 0 0 1-6.803-.142 124 124 0 0 1-4.897-.308zm0-93.6v41.85a72 72 0 0 0 1.948.214q1.746.17 3.902.311a102 102 0 0 0 3.638.169 137 137 0 0 0 4.012.056 48 48 0 0 0 8.07-.638q4.319-.742 7.775-2.346a22.8 22.8 0 0 0 4.855-3.016 19.35 19.35 0 0 0 7.283-14.163 26 26 0 0 0 .067-1.887A21.7 21.7 0 0 0 64 37.766a18.2 18.2 0 0 0-5.909-8.26q-5.604-4.531-15-5.46a52 52 0 0 0-5.1-.24 197 197 0 0 0-4.887.059 165 165 0 0 0-2.763.091 137 137 0 0 0-4.324.246 113 113 0 0 0-2.426.204Zm132.3 60.15h-54.6A36 36 0 0 0 103 92.093q2.004 5.719 5.941 9.563 6.3 6.15 16.65 6.15a55 55 0 0 0 6.413-.356 41 41 0 0 0 5.737-1.069q5.4-1.425 10.35-3.675l3.15 11.55a61 61 0 0 1-6.502 2.439 78 78 0 0 1-5.648 1.536 58 58 0 0 1-7.638 1.229 78 78 0 0 1-7.512.346 42.5 42.5 0 0 1-11.619-1.508 31.66 31.66 0 0 1-15.006-9.217 35.3 35.3 0 0 1-7.808-14.31q-1.513-5.248-1.891-11.492a71 71 0 0 1-.126-4.273 53 53 0 0 1 1.249-11.733 43.3 43.3 0 0 1 3.176-9.192 37 37 0 0 1 7.524-10.623 34.3 34.3 0 0 1 4.851-3.927q7.95-5.325 18.45-5.325a43 43 0 0 1 8.205.744q5.016.979 9.021 3.247a26 26 0 0 1 1.449.884q7.425 4.875 11.175 13.125a42.3 42.3 0 0 1 3.639 14.796 50 50 0 0 1 .111 3.354 113 113 0 0 1-.436 10.045zm-54.75-10.95h42.75a36.5 36.5 0 0 0-.606-6.878q-.744-3.876-2.4-6.912a18.6 18.6 0 0 0-2.694-3.76q-5.7-6.15-15.75-6.15a20.4 20.4 0 0 0-7.668 1.402 18.8 18.8 0 0 0-6.732 4.673q-5.7 6.075-6.9 17.625Zm76.8 72.6 4.95-11.7q3.6 2.85 8.4 4.725a25.4 25.4 0 0 0 4.781 1.314q2.353.42 5.057.525a48 48 0 0 0 1.862.036q10.65 0 16.725-5.625a17 17 0 0 0 4.36-6.74q1.018-2.761 1.432-6.187a42 42 0 0 0 .283-4.998v-9.6a23.7 23.7 0 0 1-2.998 2.971q-1.614 1.352-3.634 2.647a47 47 0 0 1-1.993 1.207 23.9 23.9 0 0 1-7.772 2.752 32.4 32.4 0 0 1-5.653.473q-8.85 0-16.8-4.575a33.35 33.35 0 0 1-10.938-10.257 41 41 0 0 1-1.962-3.168q-4.95-8.85-4.95-21.3a48 48 0 0 1 1.376-11.712 40 40 0 0 1 3.499-9.138 38.6 38.6 0 0 1 9.095-11.434 37 37 0 0 1 4.03-2.966q8.25-5.25 18.15-5.25a33.6 33.6 0 0 1 7.23.752 28 28 0 0 1 4.77 1.498 38.6 38.6 0 0 1 5.742 2.953 31.5 31.5 0 0 1 3.558 2.597v-6h12.3v76.2a61 61 0 0 1-.532 8.302q-.602 4.383-1.888 8.038a30 30 0 0 1-2.08 4.66q-4.5 8.1-12.525 11.85a38.7 38.7 0 0 1-9.906 3.032 53 53 0 0 1-8.919.718q-6.9 0-13.425-1.65a41 41 0 0 1-7.95-2.876 35 35 0 0 1-3.675-2.074Zm47.4-49.2v-40.8q-3.3-2.4-7.95-4.35t-10.8-1.95-11.55 3.3a23.6 23.6 0 0 0-7.202 6.942 29 29 0 0 0-1.573 2.583q-3.177 5.86-3.363 14.18a47 47 0 0 0-.012 1.045 36.5 36.5 0 0 0 .717 7.404 27.5 27.5 0 0 0 2.658 7.446 28 28 0 0 0 4.367 6.112 23.7 23.7 0 0 0 4.408 3.638q5.4 3.45 11.7 3.45a23 23 0 0 0 6.867-1.003 20.4 20.4 0 0 0 3.933-1.697 31.3 31.3 0 0 0 4.471-3.024 24.5 24.5 0 0 0 3.329-3.276Zm90.15-50.7v-6.3h12.3v59.1a18 18 0 0 0 .152 2.454q.385 2.822 1.742 4.252a4.5 4.5 0 0 0 .881.719q2.775 1.725 6.075 1.725l-2.85 10.5q-14.045 0-17.245-11.13a20 20 0 0 1-.155-.57 32 32 0 0 1-4.664 5.139 43 43 0 0 1-4.711 3.636 22.4 22.4 0 0 1-7.43 3.155q-3.49.82-7.645.82-9.75 0-17.7-4.95a34.4 34.4 0 0 1-11.12-11.29 42 42 0 0 1-1.555-2.735q-4.725-9.075-4.725-21.375a49.7 49.7 0 0 1 1.495-12.403 42 42 0 0 1 3.23-8.597q4.725-9.3 13.05-14.775a33.45 33.45 0 0 1 16.792-5.41 41 41 0 0 1 2.333-.065 34 34 0 0 1 7.19.736 28 28 0 0 1 5.035 1.589 39 39 0 0 1 6.43 3.441 33 33 0 0 1 3.095 2.334Zm-1.2 51.75v-41.85q-4.05-2.85-8.925-4.575t-10.275-1.725a23.9 23.9 0 0 0-7.457 1.131 21 21 0 0 0-5.218 2.544 24.45 24.45 0 0 0-7.529 8.136 30 30 0 0 0-1.096 2.064 31 31 0 0 0-2.63 8.515 41.5 41.5 0 0 0-.52 6.71q0 8.4 3.15 14.925a26.4 26.4 0 0 0 4.658 6.819 23.6 23.6 0 0 0 4.042 3.381q5.55 3.675 12.45 3.675 5.7 0 10.8-2.775a29.2 29.2 0 0 0 7.08-5.328 27 27 0 0 0 1.47-1.647Z"
		font-size="12" />
	<path fill="#eacdc2" stroke="#eacdc2" stroke-linecap="round" stroke-width="1.5"
		d="M368.741 151.006h-13.5v-91.05a16.5 16.5 0 0 0-.19-2.604q-.215-1.344-.674-2.4a6.3 6.3 0 0 0-1.611-2.271 8.6 8.6 0 0 0-4.185-1.983 12 12 0 0 0-2.19-.192l2.85-10.5q13.8 0 17.25 10.95a17 17 0 0 1 1.186-1.557q1.421-1.677 3.689-3.693a28.4 28.4 0 0 1 4.052-2.976 38 38 0 0 1 4.348-2.274q5.025-2.25 11.475-2.25 9 0 16.875 4.725a33.5 33.5 0 0 1 10.767 10.451 41 41 0 0 1 1.908 3.199q4.589 8.533 4.791 20.562a66 66 0 0 1 .009 1.113 55 55 0 0 1-1.055 10.996 42.2 42.2 0 0 1-3.745 10.829 41.8 41.8 0 0 1-5.901 8.748 34.5 34.5 0 0 1-6.624 5.802q-7.725 5.175-16.725 5.175-6.9 0-12.9-2.775t-9.9-6.375zm0-90.9v38.4q3.9 4.05 9 6.675t11.1 2.625q10.041 0 16.375-7.776l.2-.249a28.2 28.2 0 0 0 5.24-10.958q.993-4.035 1.117-8.755a52 52 0 0 0 .018-1.362 42 42 0 0 0-.595-7.264q-.791-4.507-2.63-8.186-3.225-6.45-8.55-9.9t-11.775-3.45a22.1 22.1 0 0 0-8.44 1.594 21 21 0 0 0-3.185 1.631q-4.407 2.746-7.019 5.873a19 19 0 0 0-.856 1.102Zm74.85 33.45V7.006h13.5v85.2a31 31 0 0 0 .282 4.332q.303 2.142.933 3.877a12 12 0 0 0 2.16 3.791 11.05 11.05 0 0 0 6.876 3.713 16 16 0 0 0 2.499.187q2.85 0 5.625-.675t4.725-1.575l3.3 10.95a27 27 0 0 1-2.404.925q-1.911.641-4.271 1.175a36 36 0 0 1-4.733.728 46 46 0 0 1-4.042.172q-6.9 0-12.45-2.625a19 19 0 0 1-7.987-7.148 24 24 0 0 1-.788-1.327q-3.225-5.85-3.225-15.15Zm103.8-47.25v-6.3h12.3v59.1a18 18 0 0 0 .152 2.454q.385 2.822 1.742 4.252a4.5 4.5 0 0 0 .881.719q2.775 1.725 6.075 1.725l-2.85 10.5q-14.045 0-17.245-11.13a20 20 0 0 1-.155-.57 32 32 0 0 1-4.664 5.139 43 43 0 0 1-4.711 3.636 22.4 22.4 0 0 1-7.43 3.155q-3.49.82-7.645.82-9.75 0-17.7-4.95a34.4 34.4 0 0 1-11.12-11.29 42 42 0 0 1-1.555-2.735q-4.725-9.075-4.725-21.375a49.7 49.7 0 0 1 1.495-12.403 42 42 0 0 1 3.23-8.597q4.725-9.3 13.05-14.775a33.45 33.45 0 0 1 16.792-5.41 41 41 0 0 1 2.333-.065 34 34 0 0 1 7.19.736 28 28 0 0 1 5.035 1.589 39 39 0 0 1 6.43 3.441 33 33 0 0 1 3.095 2.334Zm-1.2 51.75v-41.85q-4.05-2.85-8.925-4.575t-10.275-1.725a23.9 23.9 0 0 0-7.457 1.131 21 21 0 0 0-5.218 2.544 24.45 24.45 0 0 0-7.529 8.136 30 30 0 0 0-1.096 2.064 31 31 0 0 0-2.63 8.515 41.5 41.5 0 0 0-.52 6.71q0 8.4 3.15 14.925a26.4 26.4 0 0 0 4.658 6.819 23.6 23.6 0 0 0 4.042 3.381q5.55 3.675 12.45 3.675 5.7 0 10.8-2.775a29.2 29.2 0 0 0 7.08-5.328 27 27 0 0 0 1.47-1.647Zm26.1 51.75 3-11.25a15 15 0 0 0 1.747.861q1.234.517 2.753.939a20.3 20.3 0 0 0 3.418.626 26 26 0 0 0 2.582.124q6.3 0 11.25-4.05a18 18 0 0 0 2.899-3.092q2.623-3.466 5.112-9.245a88 88 0 0 0 1.439-3.563l3.45-9h-7.2l-30.45-68.55 12-5.4 29.1 64.95 22.65-64.35 12.45 4.8-28.65 78.3q-3.056 8.432-6.483 14.271a46 46 0 0 1-2.967 4.479q-5.1 6.75-11.25 9.45a32.2 32.2 0 0 1-9.984 2.531 39 39 0 0 1-3.666.169q-4.5 0-7.875-.9a31 31 0 0 1-2.152-.654q-1.006-.35-1.838-.736a13 13 0 0 1-1.335-.71Z"
		font-size="12" />
	<path fill="#b75d69" stroke="#b75d69" stroke-linecap="round" stroke-width="1.5"
		d="m653.535 116.899-.094-.093q-3-3-3-7.05a13 13 0 0 1 .349-3.09 8.9 8.9 0 0 1 2.351-4.26 8.97 8.97 0 0 1 4.571-2.423 13.2 13.2 0 0 1 2.779-.277q3.9 0 6.975 3a10.4 10.4 0 0 1 2.207 3.043 9.3 9.3 0 0 1 .868 4.007 11.5 11.5 0 0 1-.461 3.342 9.05 9.05 0 0 1-2.389 3.933 9.7 9.7 0 0 1-6.266 2.742 13 13 0 0 1-.934.033 9.63 9.63 0 0 1-6.956-2.907Z"
		font-size="12" />
</svg>