<?xml version="1.0" encoding="utf-8"?>
<svg width="680" height="160" viewBox="0 0 680 160" xmlns="http://www.w3.org/2000/svg">
	<g id="svgGroup" stroke-linecap="round" fill-rule="nonzero" font-size="9pt" stroke="#b75d69" stroke-width="1.5mm"
		fill="#b75d69" style="stroke:#b75d69;stroke-width:1.5mm;fill:#b75d69"
		transform="matrix(1, 0, 0, 1, 9.341041, 7.0058)">
		<path
			d="M 14.25 111 L 0 111 L 0 6.3 A 168.426 168.426 0 0 1 6.469 5.644 A 221.334 221.334 0 0 1 13.575 5.175 Q 21 4.8 28.95 4.8 A 68.937 68.937 0 0 1 38.909 5.481 Q 44.228 6.258 48.707 7.923 A 39.016 39.016 0 0 1 51.15 8.925 A 36.91 36.91 0 0 1 58.772 13.468 A 29.06 29.06 0 0 1 65.1 20.25 A 28.72 28.72 0 0 1 69.869 35.274 A 35.095 35.095 0 0 1 69.9 36.75 A 37.887 37.887 0 0 1 68.838 45.933 A 28.902 28.902 0 0 1 64.35 55.8 A 33.468 33.468 0 0 1 53.023 65.744 A 42.098 42.098 0 0 1 48.9 67.725 A 52.162 52.162 0 0 1 36.766 71.06 A 70.791 70.791 0 0 1 25.95 71.85 A 156.035 156.035 0 0 1 19.147 71.708 A 124.393 124.393 0 0 1 14.25 71.4 L 14.25 111 Z M 14.25 17.4 L 14.25 59.25 A 71.953 71.953 0 0 0 16.198 59.464 Q 17.944 59.634 20.1 59.775 A 102.132 102.132 0 0 0 23.738 59.944 A 136.698 136.698 0 0 0 27.75 60 A 47.746 47.746 0 0 0 35.82 59.362 Q 40.139 58.62 43.595 57.016 A 22.831 22.831 0 0 0 48.45 54 A 19.345 19.345 0 0 0 55.733 39.837 A 25.98 25.98 0 0 0 55.8 37.95 A 21.678 21.678 0 0 0 54.659 30.76 A 18.203 18.203 0 0 0 48.75 22.5 Q 43.146 17.969 33.75 17.04 A 51.87 51.87 0 0 0 28.65 16.8 A 196.687 196.687 0 0 0 23.763 16.859 A 164.905 164.905 0 0 0 21 16.95 A 136.911 136.911 0 0 0 16.676 17.196 A 112.559 112.559 0 0 0 14.25 17.4 Z"
			id="0" />
		<path
			d="M 146.55 77.55 L 91.95 77.55 A 36.132 36.132 0 0 0 93.659 85.087 Q 95.663 90.806 99.6 94.65 Q 105.9 100.8 116.25 100.8 A 55.094 55.094 0 0 0 122.663 100.444 A 41.363 41.363 0 0 0 128.4 99.375 Q 133.8 97.95 138.75 95.7 L 141.9 107.25 A 61.155 61.155 0 0 1 135.398 109.689 A 77.795 77.795 0 0 1 129.75 111.225 A 58.371 58.371 0 0 1 122.112 112.454 A 78.038 78.038 0 0 1 114.6 112.8 A 42.477 42.477 0 0 1 102.981 111.292 A 31.662 31.662 0 0 1 87.975 102.075 A 35.282 35.282 0 0 1 80.167 87.765 Q 78.654 82.517 78.276 76.273 A 70.687 70.687 0 0 1 78.15 72 A 53.038 53.038 0 0 1 79.399 60.267 A 43.26 43.26 0 0 1 82.575 51.075 A 36.963 36.963 0 0 1 90.099 40.452 A 34.331 34.331 0 0 1 94.95 36.525 Q 102.9 31.2 113.4 31.2 A 42.83 42.83 0 0 1 121.605 31.944 Q 126.621 32.923 130.626 35.191 A 25.82 25.82 0 0 1 132.075 36.075 Q 139.5 40.95 143.25 49.2 A 42.278 42.278 0 0 1 146.889 63.996 A 50.152 50.152 0 0 1 147 67.35 A 112.805 112.805 0 0 1 146.564 77.395 A 103.961 103.961 0 0 1 146.55 77.55 Z M 91.8 66.6 L 134.55 66.6 A 36.533 36.533 0 0 0 133.944 59.722 Q 133.2 55.846 131.544 52.81 A 18.633 18.633 0 0 0 128.85 49.05 Q 123.15 42.9 113.1 42.9 A 20.37 20.37 0 0 0 105.432 44.302 A 18.786 18.786 0 0 0 98.7 48.975 Q 93 55.05 91.8 66.6 Z"
			id="1" />
		<path
			d="M 168.6 139.2 L 173.55 127.5 Q 177.15 130.35 181.95 132.225 A 25.357 25.357 0 0 0 186.731 133.539 Q 189.084 133.959 191.788 134.064 A 47.682 47.682 0 0 0 193.65 134.1 Q 204.3 134.1 210.375 128.475 A 17.028 17.028 0 0 0 214.735 121.735 Q 215.753 118.974 216.167 115.548 A 41.761 41.761 0 0 0 216.45 110.55 L 216.45 100.95 A 23.697 23.697 0 0 1 213.452 103.921 Q 211.838 105.273 209.818 106.568 A 47.11 47.11 0 0 1 207.825 107.775 A 23.86 23.86 0 0 1 200.053 110.527 A 32.385 32.385 0 0 1 194.4 111 Q 185.55 111 177.6 106.425 A 33.354 33.354 0 0 1 166.662 96.168 A 41.156 41.156 0 0 1 164.7 93 Q 159.75 84.15 159.75 71.7 A 48.091 48.091 0 0 1 161.126 59.988 A 40.023 40.023 0 0 1 164.625 50.85 A 38.559 38.559 0 0 1 173.72 39.416 A 36.672 36.672 0 0 1 177.75 36.45 Q 186 31.2 195.9 31.2 A 33.549 33.549 0 0 1 203.13 31.952 A 28.072 28.072 0 0 1 207.9 33.45 A 38.557 38.557 0 0 1 213.642 36.403 A 31.497 31.497 0 0 1 217.2 39 L 217.2 33 L 229.5 33 L 229.5 109.2 A 61.04 61.04 0 0 1 228.968 117.502 Q 228.366 121.885 227.08 125.54 A 30.247 30.247 0 0 1 225 130.2 Q 220.5 138.3 212.475 142.05 A 38.716 38.716 0 0 1 202.569 145.082 A 52.864 52.864 0 0 1 193.65 145.8 Q 186.75 145.8 180.225 144.15 A 40.847 40.847 0 0 1 172.275 141.274 A 35.277 35.277 0 0 1 168.6 139.2 Z M 216 90 L 216 49.2 Q 212.7 46.8 208.05 44.85 Q 203.4 42.9 197.25 42.9 Q 191.1 42.9 185.7 46.2 A 23.602 23.602 0 0 0 178.498 53.142 A 29.425 29.425 0 0 0 176.925 55.725 Q 173.748 61.585 173.562 69.905 A 46.72 46.72 0 0 0 173.55 70.95 A 36.481 36.481 0 0 0 174.267 78.354 A 27.467 27.467 0 0 0 176.925 85.8 A 27.863 27.863 0 0 0 181.292 91.912 A 23.703 23.703 0 0 0 185.7 95.55 Q 191.1 99 197.4 99 A 22.914 22.914 0 0 0 204.267 97.997 A 20.409 20.409 0 0 0 208.2 96.3 A 31.282 31.282 0 0 0 212.671 93.276 A 24.464 24.464 0 0 0 216 90 Z"
			id="2" />
		<path
			d="M 306.15 39.3 L 306.15 33 L 318.45 33 L 318.45 92.1 A 18.225 18.225 0 0 0 318.602 94.554 Q 318.987 97.376 320.344 98.806 A 4.448 4.448 0 0 0 321.225 99.525 Q 324 101.25 327.3 101.25 L 324.45 111.75 Q 310.405 111.75 307.205 100.62 A 20.385 20.385 0 0 1 307.05 100.05 A 31.961 31.961 0 0 1 302.386 105.189 A 42.747 42.747 0 0 1 297.675 108.825 A 22.392 22.392 0 0 1 290.245 111.98 Q 286.755 112.8 282.6 112.8 Q 272.85 112.8 264.9 107.85 A 34.42 34.42 0 0 1 253.78 96.56 A 41.884 41.884 0 0 1 252.225 93.825 Q 247.5 84.75 247.5 72.45 A 49.713 49.713 0 0 1 248.995 60.047 A 41.952 41.952 0 0 1 252.225 51.45 Q 256.95 42.15 265.275 36.675 A 33.446 33.446 0 0 1 282.067 31.265 A 41.082 41.082 0 0 1 284.4 31.2 A 33.876 33.876 0 0 1 291.59 31.936 A 28.055 28.055 0 0 1 296.625 33.525 A 39.003 39.003 0 0 1 303.055 36.966 A 33.154 33.154 0 0 1 306.15 39.3 Z M 304.95 91.05 L 304.95 49.2 Q 300.9 46.35 296.025 44.625 Q 291.15 42.9 285.75 42.9 A 23.887 23.887 0 0 0 278.293 44.031 A 21.035 21.035 0 0 0 273.075 46.575 A 24.451 24.451 0 0 0 265.546 54.711 A 29.944 29.944 0 0 0 264.45 56.775 A 30.995 30.995 0 0 0 261.82 65.29 A 41.517 41.517 0 0 0 261.3 72 Q 261.3 80.4 264.45 86.925 A 26.403 26.403 0 0 0 269.108 93.744 A 23.545 23.545 0 0 0 273.15 97.125 Q 278.7 100.8 285.6 100.8 Q 291.3 100.8 296.4 98.025 A 29.176 29.176 0 0 0 303.48 92.697 A 27.106 27.106 0 0 0 304.95 91.05 Z"
			id="3" />
	</g>
	<g id="svgGroup" stroke-linecap="round" fill-rule="nonzero" font-size="9pt" stroke="#eacdc2" stroke-width="1.5mm"
		fill="#eacdc2" style="stroke:#eacdc2;stroke-width:1.5mm;fill:#eacdc2"
		transform="matrix(1, 0, 0, 1, 9.341041, 7.0058)">
		<path
			d="M 359.4 144 L 345.9 144 L 345.9 52.95 A 16.522 16.522 0 0 0 345.71 50.346 Q 345.495 49.002 345.036 47.946 A 6.307 6.307 0 0 0 343.425 45.675 A 8.578 8.578 0 0 0 339.24 43.692 A 11.986 11.986 0 0 0 337.05 43.5 L 339.9 33 Q 353.7 33 357.15 43.95 A 17.136 17.136 0 0 1 358.336 42.393 Q 359.757 40.716 362.025 38.7 A 28.353 28.353 0 0 1 366.077 35.724 A 38.354 38.354 0 0 1 370.425 33.45 Q 375.45 31.2 381.9 31.2 Q 390.9 31.2 398.775 35.925 A 33.494 33.494 0 0 1 409.542 46.376 A 41.197 41.197 0 0 1 411.45 49.575 Q 416.039 58.108 416.241 70.137 A 66.412 66.412 0 0 1 416.25 71.25 A 54.855 54.855 0 0 1 415.195 82.246 A 42.158 42.158 0 0 1 411.45 93.075 A 41.77 41.77 0 0 1 405.549 101.823 A 34.544 34.544 0 0 1 398.925 107.625 Q 391.2 112.8 382.2 112.8 Q 375.3 112.8 369.3 110.025 Q 363.3 107.25 359.4 103.65 L 359.4 144 Z M 359.4 53.1 L 359.4 91.5 Q 363.3 95.55 368.4 98.175 Q 373.5 100.8 379.5 100.8 Q 389.541 100.8 395.875 93.024 A 26.07 26.07 0 0 0 396.075 92.775 A 28.188 28.188 0 0 0 401.315 81.817 Q 402.308 77.782 402.432 73.062 A 51.831 51.831 0 0 0 402.45 71.7 A 42.071 42.071 0 0 0 401.855 64.436 Q 401.064 59.929 399.225 56.25 Q 396 49.8 390.675 46.35 Q 385.35 42.9 378.9 42.9 A 22.112 22.112 0 0 0 370.46 44.494 A 21.081 21.081 0 0 0 367.275 46.125 Q 362.868 48.871 360.256 51.998 A 19.41 19.41 0 0 0 359.4 53.1 Z"
			id="4" />
		<path
			d="M 434.25 86.55 L 434.25 0 L 447.75 0 L 447.75 85.2 A 30.966 30.966 0 0 0 448.032 89.532 Q 448.335 91.674 448.965 93.409 A 11.96 11.96 0 0 0 451.125 97.2 A 11.045 11.045 0 0 0 458.001 100.913 A 16.086 16.086 0 0 0 460.5 101.1 Q 463.35 101.1 466.125 100.425 Q 468.9 99.75 470.85 98.85 L 474.15 109.8 A 27.226 27.226 0 0 1 471.746 110.725 Q 469.835 111.366 467.475 111.9 A 35.725 35.725 0 0 1 462.742 112.628 A 45.77 45.77 0 0 1 458.7 112.8 Q 451.8 112.8 446.25 110.175 A 19.024 19.024 0 0 1 438.263 103.027 A 23.784 23.784 0 0 1 437.475 101.7 Q 434.25 95.85 434.25 86.55 Z"
			id="5" />
		<path
			d="M 538.05 39.3 L 538.05 33 L 550.35 33 L 550.35 92.1 A 18.225 18.225 0 0 0 550.502 94.554 Q 550.887 97.376 552.244 98.806 A 4.448 4.448 0 0 0 553.125 99.525 Q 555.9 101.25 559.2 101.25 L 556.35 111.75 Q 542.305 111.75 539.105 100.62 A 20.385 20.385 0 0 1 538.95 100.05 A 31.961 31.961 0 0 1 534.286 105.189 A 42.747 42.747 0 0 1 529.575 108.825 A 22.392 22.392 0 0 1 522.145 111.98 Q 518.655 112.8 514.5 112.8 Q 504.75 112.8 496.8 107.85 A 34.42 34.42 0 0 1 485.68 96.56 A 41.884 41.884 0 0 1 484.125 93.825 Q 479.4 84.75 479.4 72.45 A 49.713 49.713 0 0 1 480.895 60.047 A 41.952 41.952 0 0 1 484.125 51.45 Q 488.85 42.15 497.175 36.675 A 33.446 33.446 0 0 1 513.967 31.265 A 41.082 41.082 0 0 1 516.3 31.2 A 33.876 33.876 0 0 1 523.49 31.936 A 28.055 28.055 0 0 1 528.525 33.525 A 39.003 39.003 0 0 1 534.955 36.966 A 33.154 33.154 0 0 1 538.05 39.3 Z M 536.85 91.05 L 536.85 49.2 Q 532.8 46.35 527.925 44.625 Q 523.05 42.9 517.65 42.9 A 23.887 23.887 0 0 0 510.193 44.031 A 21.035 21.035 0 0 0 504.975 46.575 A 24.451 24.451 0 0 0 497.446 54.711 A 29.944 29.944 0 0 0 496.35 56.775 A 30.995 30.995 0 0 0 493.72 65.29 A 41.517 41.517 0 0 0 493.2 72 Q 493.2 80.4 496.35 86.925 A 26.403 26.403 0 0 0 501.008 93.744 A 23.545 23.545 0 0 0 505.05 97.125 Q 510.6 100.8 517.5 100.8 Q 523.2 100.8 528.3 98.025 A 29.176 29.176 0 0 0 535.38 92.697 A 27.106 27.106 0 0 0 536.85 91.05 Z"
			id="6" />
		<path
			d="M 562.95 142.8 L 565.95 131.55 A 14.861 14.861 0 0 0 567.697 132.411 Q 568.931 132.928 570.45 133.35 A 20.27 20.27 0 0 0 573.868 133.976 A 26.037 26.037 0 0 0 576.45 134.1 Q 582.75 134.1 587.7 130.05 A 18.005 18.005 0 0 0 590.599 126.958 Q 593.222 123.492 595.711 117.713 A 87.87 87.87 0 0 0 597.15 114.15 L 600.6 105.15 L 593.4 105.15 L 562.95 36.6 L 574.95 31.2 L 604.05 96.15 L 626.7 31.8 L 639.15 36.6 L 610.5 114.9 Q 607.444 123.332 604.017 129.171 A 46.29 46.29 0 0 1 601.05 133.65 Q 595.95 140.4 589.8 143.1 A 32.177 32.177 0 0 1 579.816 145.631 A 39.058 39.058 0 0 1 576.15 145.8 Q 571.65 145.8 568.275 144.9 A 30.49 30.49 0 0 1 566.123 144.246 Q 565.117 143.896 564.285 143.51 A 12.921 12.921 0 0 1 562.95 142.8 Z"
			id="7" />
	</g>
	<g id="svgGroup" stroke-linecap="round" fill-rule="nonzero" font-size="9pt" stroke="#b75d69" stroke-width="1.5mm"
		fill="#b75d69" style="stroke:#b75d69;stroke-width:1.5mm;fill:#b75d69"
		transform="matrix(1, 0, 0, 1, 9.341041, 7.0058)">
		<path
			d="M 644.194 109.893 A 12.475 12.475 0 0 1 644.1 109.8 Q 641.1 106.8 641.1 102.75 A 12.937 12.937 0 0 1 641.449 99.66 A 8.891 8.891 0 0 1 643.8 95.4 A 8.969 8.969 0 0 1 648.371 92.977 A 13.22 13.22 0 0 1 651.15 92.7 Q 655.05 92.7 658.125 95.7 A 10.432 10.432 0 0 1 660.332 98.743 A 9.338 9.338 0 0 1 661.2 102.75 A 11.541 11.541 0 0 1 660.739 106.092 A 9.046 9.046 0 0 1 658.35 110.025 A 9.691 9.691 0 0 1 652.084 112.767 A 12.908 12.908 0 0 1 651.15 112.8 A 9.626 9.626 0 0 1 644.194 109.893 Z"
			id="8" />
	</g>
</svg>