<?xml version="1.0" encoding="utf-8"?>
<svg version="1.0" xmlns="http://www.w3.org/2000/svg" width="900.000000pt" height="900.000000pt" viewBox="0 0 900.000000 900.000000" preserveAspectRatio="xMidYMid meet" xmlns:bx="https://boxy-svg.com">
  <defs>
    <bx:export>
      <bx:file format="svg" units="pt"/>
      <bx:file format="html"/>
      <bx:file format="png"/>
    </bx:export>
  </defs>
  <g transform="matrix(0.1, 0, 0, -0.1, -37.035618, 864.091627)" fill="#000000" stroke="none">
    <path d="M 2955.33 7613.74 C 2819.86 7580.16 2620.84 7501.82 2532.2 7445.85 C 2492.06 7421.87 2455.27 7401.09 2446.9 7401.09 C 2418.47 7401.09 2234.5 7226.81 2147.54 7114.89 C 2040.5 6980.58 1978.62 6863.86 1921.76 6700.77 C 1886.63 6596.85 1884.96 6572.86 1884.96 5888.54 L 1884.96 5181.83 L 1931.79 5138.66 C 1965.24 5105.08 1997.01 5092.29 2057.22 5087.5 C 2152.55 5079.5 2206.07 5105.08 2247.88 5175.44 C 2274.64 5223.4 2277.99 5284.16 2281.33 5894.93 C 2286.35 6510.51 2289.69 6566.47 2318.13 6625.63 C 2334.85 6660.8 2361.61 6715.16 2376.66 6745.54 C 2441.89 6881.45 2600.77 7041.34 2754.63 7124.48 C 2960.35 7236.4 3057.35 7257.19 3363.41 7257.19 L 3624.31 7257.19 L 3687.87 7306.75 C 3746.4 7351.52 3749.74 7361.11 3749.74 7444.26 C 3749.74 7525.8 3744.73 7538.59 3689.54 7586.56 L 3631 7640.92 L 3343.34 7639.32 C 3144.32 7637.72 3023.91 7629.73 2955.33 7613.74 Z" style="stroke-width: 1;"/>
    <path d="M 4167.86 7576.96 C 4110.99 7522.6 4100.97 7503.41 4100.97 7444.26 C 4100.97 7385.1 4110.99 7364.31 4159.5 7316.35 L 4219.71 7257.19 L 4800.05 7257.19 C 5132.86 7257.19 5427.21 7249.19 5489.1 7239.6 C 5549.31 7230.01 5636.27 7217.21 5681.43 7210.82 C 5728.26 7204.42 5781.78 7191.63 5801.85 7180.44 C 5821.92 7169.25 5853.7 7161.25 5873.76 7161.25 C 5893.83 7161.25 5930.62 7151.66 5954.04 7140.47 C 5979.13 7127.68 6025.95 7106.89 6057.74 7094.1 C 6398.91 6951.8 6587.9 6830.28 6812.01 6609.64 C 6932.43 6489.72 6969.22 6444.95 7067.9 6305.85 C 7246.85 6050.03 7338.83 5848.57 7427.45 5514.4 C 7487.67 5295.35 7491.01 4727.75 7437.49 4521.49 C 7385.64 4329.62 7358.91 4243.28 7335.49 4198.52 C 7322.11 4172.93 7312.07 4145.75 7312.07 4139.36 C 7312.07 4124.97 7210.05 3921.91 7173.26 3859.55 C 6942.46 3485.41 6614.66 3183.22 6228.33 2992.95 C 5984.14 2873.04 5857.04 2829.87 5597.81 2785.1 C 5408.82 2751.52 3082.44 2735.53 3062.37 2767.51 C 3035.61 2805.88 3043.97 3063.3 3072.4 3088.89 C 3094.14 3109.67 3263.07 3114.47 4296.63 3120.86 C 5462.34 3127.26 5500.81 3128.86 5622.89 3162.44 C 5795.16 3208.8 5840.32 3224.79 6024.28 3307.93 C 6126.3 3354.3 6144.7 3363.9 6316.96 3487.01 C 6510.97 3624.51 6661.49 3774.81 6795.28 3965.08 C 6950.82 4185.72 7009.36 4313.64 7081.28 4579.05 C 7129.78 4756.53 7133.12 5220.2 7087.96 5410.47 C 6984.28 5845.37 6715 6235.5 6327 6513.7 C 6166.44 6630.42 5937.32 6743.94 5773.41 6791.91 C 5445.62 6886.24 5539.27 6879.85 4325.07 6886.24 C 3206.19 6892.64 3119.23 6889.44 2972.06 6836.68 C 2891.78 6807.9 2764.67 6700.77 2726.2 6628.82 C 2642.58 6473.73 2645.92 6587.25 2645.92 4201.71 C 2645.92 2145.54 2647.6 1976.06 2674.35 1936.09 C 2722.86 1860.94 2764.67 1836.96 2856.66 1836.96 C 2930.25 1836.96 2946.97 1843.35 2995.47 1891.32 L 3048.99 1944.08 L 3052.34 2137.55 C 3054.01 2243.08 3062.37 2335.81 3069.06 2343.81 C 3087.45 2361.39 3809.96 2361.39 3828.35 2343.81 C 3853.44 2318.22 3843.4 1758.61 3813.3 1629.1 C 3751.42 1344.5 3544.04 1130.25 3249.69 1047.11 C 3087.45 1000.74 2930.25 1019.93 2729.55 1106.27 C 2642.58 1144.64 2431.85 1339.7 2388.37 1421.25 C 2289.69 1608.32 2296.38 1521.98 2291.37 2908.21 C 2286.35 4040.22 2283 4184.13 2259.59 4222.5 C 2214.44 4296.05 2154.22 4331.22 2073.95 4331.22 C 2012.07 4331.22 1992 4323.23 1941.82 4273.66 L 1884.96 4217.7 L 1889.97 2911.41 C 1896.67 1466.02 1891.65 1541.16 2008.72 1312.52 C 2105.73 1122.26 2109.07 1119.06 2251.23 983.144 C 2381.68 856.832 2518.82 765.696 2645.92 720.927 C 2978.74 601.01 3273.09 615.4 3590.86 767.295 C 3858.46 893.607 4049.12 1104.67 4172.88 1413.25 C 4218.03 1523.58 4234.76 1678.67 4234.76 1985.65 C 4234.76 2148.74 4241.45 2300.64 4251.48 2323.02 L 4266.53 2364.59 L 4831.83 2364.59 C 5263.32 2364.59 5438.92 2369.39 5572.72 2388.57 C 5766.73 2417.35 5918.92 2450.93 6004.22 2486.11 C 6034.32 2498.9 6071.11 2508.49 6084.49 2508.49 C 6099.55 2508.49 6131.32 2518.08 6154.73 2530.88 C 6179.82 2542.07 6275.15 2586.84 6367.14 2630.01 C 7223.44 3028.13 7808.78 3870.74 7879.02 4806.09 C 7895.74 5028.34 7875.67 5375.3 7837.21 5530.39 C 7746.89 5901.33 7638.19 6165.15 7480.97 6401.78 C 7189.98 6839.88 6808.66 7172.44 6350.41 7388.3 C 6119.62 7498.62 5920.59 7562.57 5714.88 7594.55 C 5669.73 7600.95 5586.1 7615.34 5530.91 7623.33 C 5474.05 7632.93 5174.67 7640.92 4833.5 7640.92 L 4234.76 7640.92 L 4167.86 7576.96 Z M 5530.91 6457.74 C 5751.68 6400.18 5892.16 6337.83 6081.15 6213.11 C 6353.76 6034.04 6581.21 5719.06 6678.21 5378.49 C 6709.99 5268.17 6709.99 4737.34 6678.21 4627.02 C 6561.14 4211.31 6216.62 3819.58 5815.23 3643.7 C 5770.07 3624.51 5711.54 3597.33 5686.45 3586.14 C 5663.03 3573.35 5629.59 3563.76 5611.19 3563.76 C 5594.46 3563.76 5550.98 3552.56 5514.19 3539.77 C 5459 3522.19 5300.11 3517.39 4649.53 3515.79 L 3850.1 3515.79 L 3850.1 4030.63 C 3850.1 4537.48 3850.1 4545.47 3813.3 4596.64 C 3791.55 4625.42 3746.4 4662.19 3711.28 4676.58 C 3656.09 4700.56 3639.36 4702.16 3585.85 4682.98 C 3453.72 4638.21 3458.74 4660.59 3448.71 4059.41 L 3440.34 3523.78 L 3258.04 3518.99 C 3122.57 3515.79 3070.73 3520.59 3060.69 3534.98 C 3042.3 3563.76 3043.97 6350.62 3062.37 6398.58 C 3100.83 6496.12 3025.58 6489.72 4273.23 6489.72 C 5348.62 6489.72 5420.53 6486.52 5530.91 6457.74 Z" style="stroke-width: 1;"/>
    <path d="M 4460.54 6062.82 C 4412.04 6050.03 4368.56 6010.05 4341.8 5947.7 C 4305 5864.56 4306.67 4102.58 4343.47 4014.64 C 4370.23 3950.69 4440.47 3899.52 4502.35 3899.52 C 4530.78 3899.52 4733.15 4008.25 4950.57 4142.55 C 4975.66 4158.54 5010.78 4177.73 5029.17 4185.72 C 5047.57 4193.72 5124.51 4236.89 5201.44 4281.66 C 5278.37 4328.02 5356.97 4371.19 5377.05 4380.79 C 5397.11 4388.78 5433.91 4407.97 5459 4423.96 C 5482.41 4438.35 5584.43 4497.51 5683.11 4555.07 C 5923.94 4694.17 5928.95 4695.77 5957.38 4710.16 C 5970.76 4716.55 6014.25 4742.14 6051.04 4766.12 C 6089.51 4790.1 6127.98 4810.89 6138.01 4810.89 C 6146.37 4810.89 6178.15 4836.47 6206.58 4866.85 C 6243.38 4908.42 6258.43 4940.4 6258.43 4980.37 C 6258.43 5074.7 6211.59 5125.87 6042.68 5223.4 C 5957.38 5274.57 5867.08 5327.33 5841.99 5341.72 C 5818.57 5357.71 5783.45 5376.9 5763.38 5384.89 C 5743.31 5392.88 5683.11 5428.06 5629.59 5461.64 C 5512.52 5533.59 5475.72 5554.37 5430.57 5578.35 C 5412.16 5587.95 5375.37 5608.73 5346.94 5626.32 C 5320.18 5643.91 5281.71 5664.69 5263.32 5674.29 C 5244.92 5683.88 5208.13 5704.67 5179.7 5722.25 C 5152.94 5739.84 5114.47 5760.63 5096.08 5770.22 C 5077.67 5779.81 5040.88 5800.6 5012.45 5818.19 C 4985.69 5835.77 4945.55 5856.56 4923.81 5866.15 C 4903.74 5874.15 4840.18 5910.92 4784.99 5946.1 C 4729.81 5981.27 4679.63 6010.05 4674.61 6010.05 C 4667.92 6010.05 4651.2 6019.65 4637.82 6032.44 C 4607.72 6058.02 4510.71 6075.61 4460.54 6062.82 Z M 4833.5 5477.63 C 4866.94 5456.84 4907.08 5434.45 4920.46 5429.66 C 4933.84 5423.26 4968.97 5404.08 4995.73 5386.49 C 5024.16 5368.9 5060.95 5348.11 5079.35 5338.52 C 5097.75 5328.93 5136.21 5308.14 5162.97 5290.56 C 5191.41 5272.97 5228.2 5252.18 5246.59 5242.59 C 5264.99 5232.99 5303.45 5212.21 5330.21 5194.62 C 5358.64 5177.03 5395.44 5156.25 5413.83 5146.65 C 5432.24 5137.06 5470.71 5116.28 5497.46 5098.69 C 5525.89 5081.1 5562.69 5060.31 5581.08 5052.32 C 5624.56 5034.73 5661.36 4991.56 5651.32 4975.57 C 5646.31 4967.58 5609.51 4945.19 5569.38 4926.01 C 5529.24 4905.22 5475.72 4874.84 5447.29 4858.85 C 5420.53 4841.27 5382.06 4820.48 5363.67 4810.89 C 5345.27 4801.3 5308.48 4780.51 5280.04 4762.92 C 5253.28 4745.33 5214.82 4724.55 5196.42 4716.55 C 5178.03 4708.56 5134.54 4682.98 5099.42 4660.59 C 5064.29 4638.21 5032.52 4619.02 5029.17 4619.02 C 5025.83 4619.02 4965.62 4585.45 4895.37 4545.47 C 4825.13 4505.5 4758.24 4476.72 4744.86 4481.52 C 4724.79 4487.91 4721.44 4569.46 4721.44 5002.76 C 4723.12 5570.36 4716.42 5546.38 4833.5 5477.63 Z" style="stroke-width: 1;"/>
  </g>
</svg>