<svg xmlns="http://www.w3.org/2000/svg" width="800" height="800" fill="none" viewBox="0 0 24 24"><path stroke="#b75d69" stroke-width="2" d="M3.297 5.234a2.6 2.6 0 0 1 1.937-1.937 5.54 5.54 0 0 1 2.532 0 2.6 2.6 0 0 1 1.937 1.937c.195.833.195 1.7 0 2.532a2.6 2.6 0 0 1-1.937 1.937c-.833.195-1.7.195-2.532 0a2.6 2.6 0 0 1-1.937-1.937 5.55 5.55 0 0 1 0-2.532Z"/><path stroke="#1a1423" stroke-width="2" d="M3.297 16.234a2.6 2.6 0 0 1 1.937-1.937 5.55 5.55 0 0 1 2.532 0 2.6 2.6 0 0 1 1.937 1.937c.195.833.195 1.7 0 2.532a2.6 2.6 0 0 1-1.937 1.937c-.833.195-1.7.195-2.532 0a2.6 2.6 0 0 1-1.937-1.937 5.55 5.55 0 0 1 0-2.532Z"/><path stroke="#b75d69" stroke-width="2" d="M14.297 5.234a2.6 2.6 0 0 1 1.937-1.937 5.54 5.54 0 0 1 2.532 0 2.6 2.6 0 0 1 1.937 1.937c.195.833.195 1.7 0 2.532a2.6 2.6 0 0 1-1.937 1.937c-.833.195-1.7.195-2.532 0a2.6 2.6 0 0 1-1.937-1.937 5.55 5.55 0 0 1 0-2.532Zm0 11a2.6 2.6 0 0 1 1.937-1.937 5.55 5.55 0 0 1 2.532 0 2.6 2.6 0 0 1 1.937 1.937c.195.833.195 1.7 0 2.532a2.6 2.6 0 0 1-1.937 1.937c-.833.195-1.7.195-2.532 0a2.6 2.6 0 0 1-1.937-1.937 5.55 5.55 0 0 1 0-2.532Z"/></svg>